<svg id="Layer_1" data-name="Layer 1" xmlns="http://www.w3.org/2000/svg" width="747.3318" height="946.3404" viewBox="0 0 747.3318 946.3404"><defs><style>.cls-1{fill:#c3bbff;}.cls-2{fill:#5817ff;}</style></defs><path class="cls-1" d="M795.0741,83.0684v0a44.2388,44.2388,0,0,1-44.2387,44.2387H224.6972V38.83H750.8354A44.2387,44.2387,0,0,1,795.0741,83.0684Z" transform="translate(-136.2197 -38.8298)"/><rect class="cls-1" width="88.4775" height="88.4774"/><path class="cls-1" d="M224.6972,127.3072V653.43a44.2387,44.2387,0,0,1-44.2387,44.2387h0A44.2387,44.2387,0,0,1,136.22,653.43V127.3072Z" transform="translate(-136.2197 -38.8298)"/><path class="cls-1" d="M224.6972,940.9316v0a44.2387,44.2387,0,0,1,44.2386-44.2387H795.0741V985.17H268.9358A44.2386,44.2386,0,0,1,224.6972,940.9316Z" transform="translate(-136.2197 -38.8298)"/><rect class="cls-1" x="658.8543" y="857.8631" width="88.4775" height="88.4774"/><path class="cls-1" d="M795.0741,896.6928V370.57a44.2386,44.2386,0,0,1,44.2386-44.2387h0A44.2386,44.2386,0,0,1,883.5515,370.57V896.6928Z" transform="translate(-136.2197 -38.8298)"/><path class="cls-2" d="M664.0605,412.3364H540.9922v-49.227H491.7646v24.6137L664.0605,547.7119V756.9277H368.6963V584.6328H491.7646v49.2266h49.2276V609.2461L368.6963,449.2573V240.041H664.0605Z" transform="translate(-136.2197 -38.8298)"/></svg>