<svg id="Layer_1" data-name="Layer 1" xmlns="http://www.w3.org/2000/svg" width="1024" height="1024" viewBox="0 0 1024 1024"><defs><style>.cls-1{fill:#fff;}.cls-2{fill:#c3bbff;}.cls-3{fill:#5817ff;}</style></defs><circle class="cls-1" cx="512" cy="512" r="500.266"/><path class="cls-2" d="M730.1856,180.6625v0a34.1731,34.1731,0,0,1-34.1731,34.1731H289.5856V146.4894H696.0125A34.1731,34.1731,0,0,1,730.1856,180.6625Z"/><rect class="cls-2" x="221.2393" y="146.4894" width="68.3463" height="68.3463"/><path class="cls-2" d="M289.5856,214.8357V621.2508a34.1731,34.1731,0,0,1-34.1731,34.1731h0a34.1732,34.1732,0,0,1-34.1732-34.1731V214.8357Z"/><path class="cls-2" d="M289.5856,843.3375v0a34.1731,34.1731,0,0,1,34.1731-34.1731H730.1856v68.3463H323.7587A34.1732,34.1732,0,0,1,289.5856,843.3375Z"/><rect class="cls-2" x="730.1856" y="809.1643" width="68.3463" height="68.3463"/><path class="cls-2" d="M730.1856,809.1643V402.7492a34.1731,34.1731,0,0,1,34.1731-34.1731h0a34.1731,34.1731,0,0,1,34.1731,34.1731V809.1643Z"/><path class="cls-3" d="M628.9814,435.0127H533.915V396.9858H495.8882V416L628.9814,539.5859V701.2h-228.16V568.1064h95.0669v38.0264H533.915V587.12L400.8213,463.5327V301.9189h228.16Z"/></svg>